<?xml version="1.0" encoding="UTF-8" standalone="no"?><!DOCTYPE svg PUBLIC "-//W3C//DTD SVG 1.1//EN" "http://www.w3.org/Graphics/SVG/1.1/DTD/svg11.dtd"><svg xmlns="http://www.w3.org/2000/svg" version="1.1" width="423" height="85"><path fill="none" stroke="#000000" stroke-width="2" stroke-linecap="round" stroke-linejoin="round" d="M 17 41 c 0.07 0.07 3.01 2.52 4 4 c 1.56 2.34 2.92 5.19 4 8 c 3.97 10.33 9.96 29.4 11 31 c 0.35 0.54 1.03 -7.43 2 -11 c 1.02 -3.74 2.32 -7.5 4 -11 c 2.64 -5.49 5.62 -10.79 9 -16 c 4.75 -7.32 11.38 -14.72 15 -21 c 0.7 -1.22 0.47 -3.89 0 -5 c -0.34 -0.8 -2.14 -2.09 -3 -2 c -1.81 0.18 -5.08 1.59 -7 3 c -4.09 3.02 -8.56 7.32 -12 11 c -0.94 1.01 -1.86 2.77 -2 4 c -0.16 1.4 0.1 4.3 1 5 c 1.46 1.14 5.37 1.62 8 2 c 1.92 0.27 6.11 0 6 0 c -0.16 0 -6.75 -1.01 -9 0 c -3.55 1.6 -7.95 5.95 -11 9 c -0.96 0.96 -2.3 3.8 -2 4 c 0.36 0.24 3.61 -1.13 5 -2 c 1.1 -0.69 3 -2.91 3 -3 c 0 -0.08 -2.2 1.2 -3 2 c -1.1 1.1 -2.39 2.63 -3 4 c -0.62 1.4 -1.33 3.66 -1 5 c 0.53 2.11 2.46 5.64 4 7 c 0.97 0.86 3.49 1.23 5 1 c 4.59 -0.69 10.53 -2 15 -4 c 4.79 -2.15 9.99 -5.4 14 -9 c 8.7 -7.8 18.56 -18.08 25 -26 c 1.09 -1.34 1 -6.11 1 -6 c 0 0.25 -0.9 9.2 -1 14 c -0.24 11.63 -0.54 23.56 0 34 c 0.08 1.65 1.97 5.23 2 5 c 0.11 -0.93 0.78 -14.85 0 -22 c -0.87 -7.97 -2.96 -16.61 -5 -24 c -0.48 -1.76 -2.72 -3.44 -3 -5 c -0.3 -1.62 0.24 -4.47 1 -6 c 0.71 -1.42 2.51 -2.9 4 -4 c 4.76 -3.51 9.79 -6.91 15 -10 c 3.88 -2.3 11.78 -5.91 12 -6 c 0.09 -0.04 -3.65 1.74 -5 3 c -3.45 3.22 -6.95 7.1 -10 11 c -2.96 3.79 -6.51 8.03 -8 12 c -1.24 3.31 -1.2 8.33 -1 12 c 0.11 1.93 1.05 4.24 2 6 c 1.29 2.4 3.01 5.41 5 7 c 2.58 2.07 6.63 4.16 10 5 c 5.46 1.36 12.01 1 18 2 c 4.09 0.68 12.39 2.22 12 3 c -0.58 1.16 -12.38 4.57 -17 7 c -0.91 0.48 -2.38 2.9 -2 3 c 1.49 0.37 9.73 0.96 14 0 c 8.4 -1.89 17.83 -5.29 26 -9 c 6.26 -2.85 12.7 -6.92 18 -11 c 3.03 -2.33 6.99 -6.32 8 -9 c 0.61 -1.62 -0.96 -5.44 -2 -7 c -0.64 -0.96 -2.6 -1.59 -4 -2 c -6.44 -1.88 -17.39 -3.31 -20 -5 c -0.85 -0.55 1.55 -4.62 3 -6 c 4.33 -4.1 10.83 -7.77 16 -12 c 2.19 -1.8 5.78 -5.93 6 -6 c 0.15 -0.05 -2.6 3.3 -3 5 c -0.82 3.51 -1 8.02 -1 12 c 0 3.65 0.45 7.33 1 11 c 0.46 3.06 0.78 6.56 2 9 c 1.22 2.44 5.01 4.59 6 7 c 1.08 2.62 1 6.82 1 10 c 0 1.62 -0.31 3.62 -1 5 c -1.17 2.33 -3.04 5.6 -5 7 c -2.16 1.54 -5.98 2.36 -9 3 c -3.2 0.67 -6.59 0.92 -10 1 c -11.86 0.26 -23.41 0.66 -35 0 c -6.04 -0.34 -12.88 -1.44 -18 -3 c -1.8 -0.55 -5.1 -2.96 -5 -4 c 0.14 -1.37 3.65 -4.86 6 -6 c 16.87 -8.16 49.58 -20.47 56 -24 c 0.68 -0.37 -3.25 -3.79 -5 -4 c -7.64 -0.93 -21.15 0.88 -28 0 c -1.22 -0.16 -1.78 -3.66 -3 -4 c -3.68 -1.02 -10.12 -1.29 -15 -1 c -6.24 0.37 -12.57 1.68 -19 3 c -8.59 1.76 -17.06 3.43 -25 6 c -4.14 1.34 -10.59 4.12 -12 6 c -0.7 0.94 1.65 4.65 3 6 c 1.62 1.62 7.62 3.76 7 4 c -3.15 1.24 -26.16 6.19 -40 9 c -9.93 2.02 -19.42 2.9 -29 5 c -4.12 0.9 -9.95 2.29 -12 4 c -0.97 0.81 -0.89 5.31 0 6 c 1.34 1.04 6.04 1.1 9 1 c 7.23 -0.23 14.54 -0.91 22 -2 c 18.16 -2.66 34.61 -6.52 53 -9 c 66.18 -8.91 125.81 -16.81 192 -24 c 28.81 -3.13 55.36 -5.01 84 -6 c 20.74 -0.72 62.07 0.97 61 1 l -93 0"/></svg>